<svg height="512pt" viewBox="0 0 512 512" width="512pt" xmlns="http://www.w3.org/2000/svg"><path d="m352.871094 159.078125 21.230468-63.652344 63.652344-21.226562c11.164063 11.167969 13.210938 21.402343 14.707032 28.875 1.171874 5.863281 1.761718 8.808593 6.503906 13.550781 4.746094 4.742188 7.6875 5.332031 13.550781 6.507812 7.472656 1.492188 17.710937 3.542969 28.878906 14.707032l10.605469 10.605468-10.605469 10.609376c-40.957031 40.953124-107.582031 40.964843-148.523437.023437zm0 0" fill="#ff6c84"/><path d="m352.871094 10.589844 10.589844-10.589844 10.6875 10.648438c11.125 11.128906 13.175781 21.339843 14.671874 28.796874 1.171876 5.859376 1.765626 8.796876 6.503907 13.539063 4.742187 4.746094 7.6875 5.332031 13.546875 6.503906 7.476562 1.496094 17.710937 3.542969 28.882812 14.710938l-84.882812 84.878906c-40.9375-40.9375-40.9375-107.550781 0-148.488281zm0 0" fill="#ff9592"/><path d="m159.078125 352.871094-63.652344 21.230468-21.226562 63.652344c11.167969 11.164063 21.402343 13.210938 28.875 14.707032 5.863281 1.171874 8.808593 1.761718 13.550781 6.503906 4.742188 4.746094 5.332031 7.6875 6.507812 13.550781 1.492188 7.472656 3.542969 17.710937 14.707032 28.878906l10.605468 10.605469 10.609376-10.605469c40.953124-40.957031 40.964843-107.582031.023437-148.523437zm0 0" fill="#ff6c84"/><path d="m10.589844 352.871094-10.589844 10.589844 10.648438 10.6875c11.128906 11.125 21.339843 13.175781 28.796874 14.671874 5.859376 1.171876 8.796876 1.765626 13.539063 6.503907 4.746094 4.742187 5.332031 7.6875 6.503906 13.546875 1.496094 7.476562 3.542969 17.710937 14.710938 28.882812l84.878906-84.882812c-40.9375-40.9375-107.550781-40.9375-148.488281 0zm0 0" fill="#ff9592"/><path d="m374.085938 137.914062-146.371094 89.800782-89.800782 146.371094c65.21875 65.21875 170.953126 65.21875 236.171876 0s65.21875-170.953126 0-236.171876zm0 0" fill="#ff9592"/><path d="m137.914062 137.914062c-65.21875 65.21875-65.21875 170.953126 0 236.171876l236.171876-236.171876c-65.21875-65.21875-170.953126-65.21875-236.171876 0zm0 0" fill="#ffbe9f"/><path d="m256 256h-86.269531v86.273438c31.929687 31.929687 77.144531 42.425781 117.84375 31.5625zm0 0" fill="#ff364e"/><path d="m256 256c1.035156 42.078125 2.074219 84.164062 31.574219 117.835938 20.035156-5.347657 38.980469-15.847657 54.699219-31.5625 15.714843-15.714844 26.210937-34.660157 31.5625-54.695313zm0 0" fill="#ffe7ad"/><path d="m342.269531 169.730469-86.269531 86.269531c36.960938 20.140625 73.925781 40.285156 117.835938 31.578125 10.863281-40.699219.367187-85.917969-31.566407-117.847656zm0 0" fill="#ff364e"/><path d="m224.425781 138.164062 31.574219 117.835938c35.929688-21.941406 71.863281-43.878906 86.269531-86.269531-31.925781-31.929688-77.140625-42.429688-117.84375-31.566407zm0 0" fill="#fff"/><path d="m224.425781 138.164062c-20.035156 5.347657-38.980469 15.847657-54.699219 31.5625-15.71875 15.71875-26.214843 34.667969-31.5625 54.703126l117.835938 31.570312c-1.035156-42.082031-2.074219-84.164062-31.574219-117.835938zm0 0" fill="#ff4377"/><path d="m256 256c-36.960938-20.144531-73.925781-40.285156-117.835938-31.570312-10.859374 40.699218-.359374 85.914062 31.566407 117.84375 14.410156-42.386719 50.339843-64.332032 86.269531-86.273438zm0 0" fill="#fff"/></svg>