<svg xmlns="http://www.w3.org/2000/svg" width="300" height="300" viewBox="0 0 1200 1200">
  <defs>
    <style>
      .cls-1 {
        fill: #736357;
      }

      .cls-1, .cls-2, .cls-3, .cls-4, .cls-5, .cls-6, .cls-7, .cls-8 {
        stroke: #000;
      }

      .cls-1, .cls-2, .cls-3, .cls-6 {
        stroke-width: 10.14px;
      }

      .cls-1, .cls-2, .cls-3, .cls-5, .cls-6, .cls-7, .cls-8 {
        fill-rule: evenodd;
      }

      .cls-2 {
        fill: #534741;
      }

      .cls-3 {
        fill: #f7941d;
      }

      .cls-4, .cls-7, .cls-8 {
        stroke-width: 1px;
      }

      .cls-5 {
        stroke-width: 0.88px;
      }

      .cls-6, .cls-7 {
        fill: #f26d7d;
      }

      .cls-8 {
        fill: #ed1c24;
      }
    </style>
  </defs>
  <path class="cls-1" d="M525,225S623-11,698,32s68,61,68,61-81.274-6.335-91,32c-12.884,50.784,19,105,19,105-49,52-94,70-94,70Z"/>
  <path class="cls-2" d="M975-150"/>
  <path class="cls-3" d="M450,257s-94.709-100-256,8C-57.394,433.329,4.836,793.347,96,948c132.247,224.35,293.419,90.99,343,98,28.493,4.03,86.136,41.49,161,46,83,5,175.941-48.01,204-44,68.45,9.79,88.745,38.53,186,14,257.19-64.872,304.44-789.96-31-855-123.188-23.886-188,49.309-188,49,0,0-110.669-73.722-182.212-47.477C507.838,238.218,448.874,260.064,450,257Z"/>
  <ellipse class="cls-4" cx="429" cy="465" rx="54" ry="90"/>
  <ellipse class="cls-4" cx="762.5" cy="487.5" rx="62.5" ry="112.5"/>
  <path class="cls-5" d="M321,710s279,85.5,429,40,124.086,41.788,75,75c-76.26,51.6-280.454,25.719-408.21-19.172C333.517,776.567,282.72,739.227,321,710Z"/>
  <path class="cls-6" d="M300,900s0,101.5,75,40S488,825,488,825s-6-23.756-53-51-82-9-82-9Z"/>
  <path class="cls-7" d="M375-150"/>
  <path class="cls-8" d="M-450,300"/>
</svg>
